<?xml version="1.0" standalone="no"?>
<!DOCTYPE svg PUBLIC "-//W3C//DTD SVG 1.1//EN" "http://www.w3.org/Graphics/SVG/1.1/DTD/svg11.dtd" >
<svg xmlns="http://www.w3.org/2000/svg">
  <metadata>Created by iconfont</metadata>
  <defs>
  <font id="loong-icons" horiz-adv-x="1024">
    <font-face
      font-family="loong-icons"
      font-weight="400"
      font-stretch="normal"
      units-per-em="1024"
      ascent="896"
      descent="-128"
    />
      <missing-glyph />
      
      <glyph glyph-name="code" unicode="&#58901;" d="M321.828571 669.257143c-14.628571 14.628571-36.571429 14.628571-51.2 0L7.314286 413.257143c-14.628571-14.628571-14.628571-36.571429 0-51.2l256-256c14.628571-14.628571 36.571429-14.628571 51.2 0 14.628571 14.628571 14.628571 36.571429 0 51.2L87.771429 384l234.057142 234.057143c7.314286 14.628571 7.314286 36.571429 0 51.2z m263.314286 0c-14.628571 0-36.571429-7.314286-43.885714-29.257143l-131.657143-497.371429c-7.314286-21.942857 7.314286-36.571429 29.257143-43.885714s36.571429 7.314286 43.885714 29.257143l131.657143 497.371429c7.314286 14.628571-7.314286 36.571429-29.257143 43.885714z m431.542857-256l-256 256c-14.628571 14.628571-36.571429 14.628571-51.2 0-14.628571-14.628571-14.628571-36.571429 0-51.2L936.228571 384l-234.057142-234.057143c-14.628571-14.628571-14.628571-36.571429 0-51.2 14.628571-14.628571 36.571429-14.628571 51.2 0l256 256c14.628571 14.628571 14.628571 43.885714 7.314285 58.514286z"  horiz-adv-x="1027" />
      
      <glyph glyph-name="fuzhi1" unicode="&#60538;" d="M720 704h-544A80.096 80.096 0 0 1 96 624v-608C96-28.128000000000043 131.904-64 176-64h544c44.128 0 80 35.872 80 80v608C800 668.096 764.128 704 720 704z m16-688c0-8.8-7.2-16-16-16h-544a16 16 0 0 0-16 16v608a16 16 0 0 0 16 16h544a16 16 0 0 0 16-16v-608zM848 832h-544a32 32 0 0 1 0-64h544a16 16 0 0 0 16-16v-608a32 32 0 1 1 64 0v608C928 796.096 892.128 832 848 832zM608 536H288a32 32 0 0 1 0-64h320a32 32 0 1 1 0 64zM608 376H288a32 32 0 1 1 0-64h320a32 32 0 1 1 0 64zM480 217.34400000000005H288a32 32 0 1 1 0-64h192a32 32 0 1 1 0 64z"  horiz-adv-x="1024" />
      
      <glyph glyph-name="cangku" unicode="&#60933;" d="M997.846119 633.192903l-460.70855 255.949194a51.189839 51.189839 0 0 1-51.189839 0l-460.708549-255.949194a51.189839 51.189839 0 0 1-18.428342-69.618181A51.189839 51.189839 0 0 1 51.345999 537.467905v-614.278066a51.189839 51.189839 0 0 1 51.189839-51.189839h819.037421a51.189839 51.189839 0 0 1 51.189839 51.189839V537.467905a51.189839 51.189839 0 0 1 25.083021 95.724998zM153.725676-25.620322V588.657743l358.328872 199.128473L870.38342 588.657743v-614.278065zM204.915515 127.949194h102.379678v-102.379678H204.915515zM204.915515 281.518711h102.379678v-102.379678H204.915515zM204.915515 435.088227h102.379678v-102.379678H204.915515zM358.485032 281.518711h102.379677v-102.379678H358.485032zM358.485032 127.949194h102.379677v-102.379678H358.485032zM512.054548 127.949194h102.379678v-102.379678h-102.379678z"  horiz-adv-x="1024" />
      
      <glyph glyph-name="fabu" unicode="&#60934;" d="M460.8 537.6a51.2 51.2 0 0 1 102.4 0V691.2h102.4l-153.6 204.8-153.6-204.8h102.4zM972.8 793.6h-153.6a51.2 51.2 0 0 1 0-102.4h102.4v-716.8H102.4V691.2h102.4a51.2 51.2 0 0 1 0 102.4H51.2a51.2 51.2 0 0 1-51.2-51.2v-819.2a51.2 51.2 0 0 1 51.2-51.2h921.6a51.2 51.2 0 0 1 51.2 51.2V742.4a51.2 51.2 0 0 1-51.2 51.2zM716.8 179.2H307.2a51.2 51.2 0 0 1 0-102.4h409.6a51.2 51.2 0 0 1 0 102.4zM307.2 281.6h409.6a51.2 51.2 0 0 1 0 102.4H307.2a51.2 51.2 0 0 1 0-102.4z"  horiz-adv-x="1024" />
      
      <glyph glyph-name="jiance" unicode="&#60935;" d="M512 896a512 512 0 1 1 512-512A512 512 0 0 1 512 896z m0-102.4a409.6 409.6 0 0 0 403.456-478.208h-71.68l-102.4 269.824a55.808 55.808 0 0 1-48.128 32.768 51.2 51.2 0 0 1-47.616-33.792L535.552 281.6 425.984 468.992a51.2 51.2 0 0 1-46.08 25.6 51.2 51.2 0 0 1-44.032-28.16l-75.264-151.04h-153.6A409.6 409.6 0 0 0 512 793.6z m0-819.2a409.6 409.6 0 0 0-371.712 238.592h153.6a51.2 51.2 0 0 1 45.568 28.16l47.104 94.72 116.736-199.68a51.2 51.2 0 0 1 44.032-25.6h4.608a51.2 51.2 0 0 1 43.52 33.28l102.4 275.968 66.048-174.08a51.2 51.2 0 0 1 47.616-32.768h75.264A409.6 409.6 0 0 0 512-25.6z"  horiz-adv-x="1024" />
      
      <glyph glyph-name="dianpu" unicode="&#60936;" d="M1024.004096 537.6a51.2 51.2 0 0 1-2.56 16.384l-102.4 307.2A51.2 51.2 0 0 1 870.404096 896H153.604096a51.2 51.2 0 0 1-48.64-34.816l-102.4-307.2A51.2 51.2 0 0 1 0.004096 537.6v-12.8A215.552 215.552 0 0 1 51.204096 384v-460.8a51.2 51.2 0 0 1 51.2-51.2h819.2a51.2 51.2 0 0 1 51.2 51.2v460.8a215.552 215.552 0 0 1 51.2 138.752zM190.468096 793.6h643.072L921.604096 529.408v-4.608a114.688 114.688 0 0 0-217.088-51.2 51.2 51.2 0 0 1-91.136 0 113.664 113.664 0 0 0-204.8 0 51.2 51.2 0 0 1-91.136 0 114.688 114.688 0 0 0-215.04 51.2zM153.604096-25.6v343.552a214.528 214.528 0 0 1 64-10.752 215.552 215.552 0 0 1 147.456 57.856 215.552 215.552 0 0 1 294.4 0 209.92 209.92 0 0 1 211.456-47.104V-25.6zM665.604096 179.2H358.404096a51.2 51.2 0 0 1 0-102.4h307.2a51.2 51.2 0 0 1 0 102.4z"  horiz-adv-x="1024" />
      
      <glyph glyph-name="ruzhu" unicode="&#60937;" d="M896 691.2h-256V742.4a51.2 51.2 0 0 1-51.2 51.2h-409.6V844.8a51.2 51.2 0 0 1-102.4 0v-921.6a51.2 51.2 0 0 1 102.4 0v307.2h358.4v-51.2a51.2 51.2 0 0 1 51.2-51.2h307.2a51.2 51.2 0 0 1 51.2 51.2V640a51.2 51.2 0 0 1-51.2 51.2z m-716.8 0h358.4v-358.4h-358.4z m665.6-460.8h-204.8V588.8h204.8z"  horiz-adv-x="1024" />
      
      <glyph glyph-name="biaoqian" unicode="&#60938;" d="M994.037598 774.926016A102.372564 102.372564 0 0 1 902.926016 866.037598L582.49989 895.725642a102.372564 102.372564 0 0 1-79.8506-29.688044L29.176181 393.076352a102.372564 102.372564 0 0 1 0-142.297865l349.602306-349.090443a102.372564 102.372564 0 0 1 142.297865 0l472.961246 472.961246A102.372564 102.372564 0 0 1 1023.725642 454.49989zM450.439282-25.627436L102.372564 320.903694 573.286359 793.353077l318.890538-27.640592 29.17618-318.890537zM729.513102 602.173379m-72.388334-72.388334a102.372564 102.372564 0 1 1 144.776668 144.776669 102.372564 102.372564 0 1 1-144.776668-144.776669Z"  horiz-adv-x="1024" />
      
      <glyph glyph-name="bianxie" unicode="&#60939;" d="M261.12 896H102.4a102.4 102.4 0 0 1-102.4-102.4v-731.648a51.2 51.2 0 0 1 14.848-35.84l135.68-138.752a51.2 51.2 0 0 1 36.352-15.36 51.2 51.2 0 0 1 36.864 16.896L350.208 25.6a51.2 51.2 0 0 1 13.312 34.304V793.6a102.4 102.4 0 0 1-102.4 102.4z m0-102.4v-114.176H102.4V793.6zM185.856-2.048L102.4 82.944V577.024h158.72v-495.616zM512 727.552h263.168a51.2 51.2 0 0 1 0 102.4H512a51.2 51.2 0 0 1 0-102.4zM512 464.384h460.8a51.2 51.2 0 0 1 0 102.4h-460.8a51.2 51.2 0 0 1 0-102.4zM512 201.216h263.168a51.2 51.2 0 0 1 0 102.4H512a51.2 51.2 0 0 1 0-102.4zM972.8 40.448h-460.8a51.2 51.2 0 0 1 0-102.4h460.8a51.2 51.2 0 0 1 0 102.4z"  horiz-adv-x="1024" />
      
      <glyph glyph-name="fapiao" unicode="&#60940;" d="M921.044722 896H102.955278a51.13059 51.13059 0 0 1-51.13059-51.13059v-920.350624a51.13059 51.13059 0 0 1 83.342862-39.881861l97.148121 77.718498 106.351628-78.741109a51.13059 51.13059 0 0 1 59.311485 0l119.134275 82.32025 119.134275-82.32025a51.13059 51.13059 0 0 1 59.822791 0l102.26118 77.718497 87.944615-75.673274A51.13059 51.13059 0 0 1 972.175312-75.481214V844.86941a51.13059 51.13059 0 0 1-51.13059 51.13059z m-51.13059-860.016528l-34.257496 29.655743a51.13059 51.13059 0 0 1-63.913238 0L665.391771-12.590588l-118.111664 81.297638a51.13059 51.13059 0 0 1-57.777567 0l-119.645581-81.297638-108.908157 80.275026a51.13059 51.13059 0 0 1-62.37932 0l-44.483614-35.791413V793.73882h715.828264zM358.608229 538.085868h306.783542a51.13059 51.13059 0 0 1 0 102.261181H358.608229a51.13059 51.13059 0 0 1 0-102.261181zM358.608229 333.563508h306.783542a51.13059 51.13059 0 0 1 0 102.26118H358.608229a51.13059 51.13059 0 0 1 0-102.26118z"  horiz-adv-x="1024" />
      
      <glyph glyph-name="gerenzhongxin" unicode="&#60941;" d="M890.324764 762.356413A501.941511 501.941511 0 0 1 511.953798 894.607534a502.962755 502.962755 0 0 1-378.370966-132.251121A504.494621 504.494621 0 0 1 1.331712 383.985447a506.53711 506.53711 0 0 1 132.25112-379.39221A505.515865 505.515865 0 0 1 511.953798-126.636639h15.318663a499.899022 499.899022 0 0 1 364.073547 132.25112A504.494621 504.494621 0 0 1 1022.575885 383.985447a506.53711 506.53711 0 0 1-132.251121 378.370966zM818.32705 77.612195a408.497669 408.497669 0 0 0-306.373252-102.124417 408.497669 408.497669 0 0 0-306.373251 102.124417 408.497669 408.497669 0 0 0-102.124418 306.373252 408.497669 408.497669 0 0 0 102.124418 306.373252 408.497669 408.497669 0 0 0 306.373251 102.124417 408.497669 408.497669 0 0 0 306.373252-102.124417 408.497669 408.497669 0 0 0 102.124417-306.373252 408.497669 408.497669 0 0 0-102.124417-306.373252zM344.980376 375.815494a41.871011 41.871011 0 0 1 41.871011 41.871011V500.917905a41.871011 41.871011 0 1 1-83.742022 0v-83.2314a41.871011 41.871011 0 0 1 41.871011-41.871011zM678.927221 375.815494a41.871011 41.871011 0 0 1 41.871011 41.871011V500.917905a41.871011 41.871011 0 0 1-83.742023 0v-83.2314a41.871011 41.871011 0 0 1 41.871012-41.871011zM694.756505 287.988495a51.062209 51.062209 0 0 1-67.402115-26.552348A124.591789 124.591789 0 0 0 511.953798 192.502165a124.591789 124.591789 0 0 0-115.400591 69.444604 51.062209 51.062209 0 1 1-93.954464-40.339145 224.673718 224.673718 0 0 1 209.355055-131.229876 224.673718 224.673718 0 0 1 209.355056 130.208632 51.062209 51.062209 0 0 1-26.552349 67.402115z"  horiz-adv-x="1026" />
      
      <glyph glyph-name="guanggao" unicode="&#60942;" d="M972.8 896H51.2a51.2 51.2 0 0 1-51.2-51.2v-716.8a51.2 51.2 0 0 1 51.2-51.2h921.6a51.2 51.2 0 0 1 51.2 51.2V844.8a51.2 51.2 0 0 1-51.2 51.2z m-51.2-716.8H102.4V793.6h819.2zM972.8-25.6H51.2a51.2 51.2 0 0 1 0-102.4h921.6a51.2 51.2 0 0 1 0 102.4zM256 384h137.216l29.184-107.008H512L375.808 695.296H278.016l-133.632-417.792h84.48z m30.208 110.592c12.288 43.52 24.576 90.624 35.328 136.192h2.56c11.776-45.056 23.04-93.184 35.84-136.192l12.288-45.568H276.48zM879.616 486.4c0 140.8-78.848 204.8-204.8 204.8h-115.712v-417.28h118.784c122.88 3.584 201.728 73.728 201.728 212.48z m-237.056-142.848V628.224h26.112c77.824 0 125.952-38.4 125.952-140.288s-48.64-142.848-125.952-142.848z"  horiz-adv-x="1024" />
      
      <glyph glyph-name="quanqiu" unicode="&#60943;" d="M512 896a512 512 0 1 1 512-512A512 512 0 0 1 512 896z m406.016-460.8H768a670.72 670.72 0 0 1-108.544 331.264A409.6 409.6 0 0 0 918.016 435.2zM358.4 332.8h307.2a512 512 0 0 0-153.6-347.136A512 512 0 0 0 358.4 332.8z m0 102.4a512 512 0 0 0 153.6 347.136A512 512 0 0 0 665.6 435.2z m6.656 331.264A669.184 669.184 0 0 1 256 435.2H102.4a409.6 409.6 0 0 0 264.704 331.264zM105.984 332.8H256a668.672 668.672 0 0 1 109.056-331.264A409.6 409.6 0 0 0 105.984 332.8z m550.912-331.264A669.184 669.184 0 0 1 768 332.8h153.6a409.6 409.6 0 0 0-264.704-331.264z"  horiz-adv-x="1024" />
      
      <glyph glyph-name="quanxian" unicode="&#60944;" d="M932.475691 802.671789l-409.222084 92.074968a51.15276 51.15276 0 0 1-22.507214 0l-409.222084-92.074968A51.15276 51.15276 0 0 1 51.625156 752.542083v-361.650016a460.374844 460.374844 0 0 1 238.371864-403.59528l197.449655-108.443852a51.15276 51.15276 0 0 1 51.15276 0l197.449656 108.443852A460.374844 460.374844 0 0 1 972.374844 390.892067V752.542083a51.15276 51.15276 0 0 1-39.899153 50.129706zM870.069323 390.892067A358.069323 358.069323 0 0 0 684.384803 77.325646L512-17.818489 339.615197 77.325646A358.069323 358.069323 0 0 0 153.930677 390.892067V711.619875L512 793.464292l358.069323-81.844417zM358.541719 563.27687a153.458281 153.458281 0 0 1 102.305521-144.250785v-264.971299a51.15276 51.15276 0 0 1 102.30552 0v51.152761h102.305521a51.15276 51.15276 0 0 1 0 102.305521h-102.305521V419.026085A153.458281 153.458281 0 1 1 358.541719 563.27687z m204.611041 0a51.15276 51.15276 0 1 0-51.15276 51.15276 51.15276 51.15276 0 0 0 51.15276-51.15276z"  horiz-adv-x="1024" />
      
      <glyph glyph-name="jiancha" unicode="&#60945;" d="M1009.168634-40.539484L819.415116 147.679639A460.318507 460.318507 0 1 1 748.32148 76.586003l188.219123-188.219123a51.146501 51.146501 0 0 1 72.116566 72.116566zM461.389611 76.586003a358.025505 358.025505 0 1 0 358.025505 358.025505 358.025505 358.025505 0 0 0-358.025505-358.025505zM620.455228 592.142731l-204.586003-204.586003-93.086631 88.483446A51.146501 51.146501 0 0 1 250.666028 403.923608l126.843322-126.843322a51.146501 51.146501 0 0 1 72.116566 0l242.945878 242.945879a51.146501 51.146501 0 0 1-72.116566 72.116566z"  horiz-adv-x="1024" />
      
      <glyph glyph-name="duowenjian" unicode="&#60946;" d="M30.526197 593.289275l460.538184-204.683637a51.170909 51.170909 0 0 1 41.448436 0l460.538184 204.683637a51.170909 51.170909 0 0 1 0 93.642764l-460.538184 204.683637a51.170909 51.170909 0 0 1-41.448436 0l-460.538184-204.683637a51.170909 51.170909 0 0 1 0-93.642764zM512.044453 788.762149L846.7022 639.854803 512.044453 490.947456 177.386706 639.854803zM30.526197 337.434728l460.538184-204.683637a51.170909 51.170909 0 0 1 41.448436 0l460.538184 204.683637a51.170909 51.170909 0 0 1-41.448436 93.642764L512.044453 235.09291 72.486342 430.565783a51.170909 51.170909 0 0 1-41.448436-93.642764zM951.602565 174.711237L512.044453-20.761637l-439.558111 195.472874a51.170909 51.170909 0 1 1-41.448436-93.642764l460.538184-204.683638a51.170909 51.170909 0 0 1 41.448436 0l460.538184 204.683638a51.170909 51.170909 0 0 1-41.448436 93.642764z"  horiz-adv-x="1024" />
      
      <glyph glyph-name="kefu" unicode="&#60947;" d="M921.6 537.6h-3.584A409.6 409.6 0 0 1 105.984 537.6H102.4a102.4 102.4 0 0 1-102.4-102.4v-102.4a102.4 102.4 0 0 1 102.4-102.4h51.2a51.2 51.2 0 0 1 51.2 51.2V486.4a307.2 307.2 0 0 0 614.4 0v-204.8a307.2 307.2 0 0 0-307.2-307.2 51.2 51.2 0 0 1 0-102.4 409.6 409.6 0 0 1 406.016 358.4H921.6a102.4 102.4 0 0 1 102.4 102.4V435.2a102.4 102.4 0 0 1-102.4 102.4zM698.368 320a51.2 51.2 0 1 1-65.536 79.36 196.096 196.096 0 0 0-241.664 0 51.2 51.2 0 0 1-65.536-78.848 293.888 293.888 0 0 1 372.736 0z"  horiz-adv-x="1024" />
      
      <glyph glyph-name="fahuo" unicode="&#60948;" d="M1009.152 471.552l-102.4 102.4A51.2 51.2 0 0 1 870.4 588.8h-102.4V742.4a51.2 51.2 0 0 1-51.2 51.2H51.2a51.2 51.2 0 0 1-51.2-51.2v-563.2a51.2 51.2 0 0 1 51.2-51.2h51.2a153.6 153.6 0 0 1 307.2 0h153.6a153.6 153.6 0 0 1 307.2 0h102.4a51.2 51.2 0 0 1 51.2 51.2V435.2a51.2 51.2 0 0 1-14.848 36.352zM256 76.8a51.2 51.2 0 1 0 51.2 51.2 51.2 51.2 0 0 0-51.2-51.2z m113.664 153.6a153.6 153.6 0 0 1-227.328 0H102.4V691.2h563.2v-418.816a153.6 153.6 0 0 1-62.464-41.984zM716.8 76.8a51.2 51.2 0 1 0 51.2 51.2 51.2 51.2 0 0 0-51.2-51.2z m204.8 153.6h-91.136a153.6 153.6 0 0 1-62.464 41.984V486.4h81.408L921.6 414.208z"  horiz-adv-x="1024" />
      
      <glyph glyph-name="a-24xiaoshi" unicode="&#60949;" d="M512 896a512 512 0 1 1 512-512A512 512 0 0 1 512 896z m0-921.6a409.6 409.6 0 1 0 409.6 409.6 409.6 409.6 0 0 0-409.6-409.6zM348.672 267.264C409.6 332.8 475.648 402.432 481.28 469.504A109.056 109.056 0 0 1 367.616 599.04 169.984 169.984 0 0 1 235.52 537.6l45.056-51.2a105.984 105.984 0 0 0 68.096 35.84c30.72 0 48.128-19.968 44.544-58.368-5.12-56.32-77.824-124.928-178.176-218.112l-4.608-56.32h264.192l7.168 82.944H409.6a522.24 522.24 0 0 1-60.928-5.12zM771.584 357.888L791.552 588.8h-112.64l-153.6-239.616-5.12-67.584h160.256l-8.192-93.696h84.992l7.68 93.696h41.984l6.656 75.264z m-79.872 58.88l-5.12-58.88H614.4l51.2 80.896c12.8 23.552 25.088 46.592 36.864 69.632-3.072-25.6-8.704-65.536-10.752-91.648z"  horiz-adv-x="1024" />
      
      <glyph glyph-name="caozuorizhi" unicode="&#60950;" d="M972.8 896H204.8a51.2 51.2 0 0 1-51.2-51.2v-102.4H51.2a51.2 51.2 0 0 1-51.2-51.2v-768a51.2 51.2 0 0 1 51.2-51.2h768a51.2 51.2 0 0 1 51.2 51.2v102.4h102.4a51.2 51.2 0 0 1 51.2 51.2V844.8a51.2 51.2 0 0 1-51.2 51.2z m-204.8-921.6H102.4V640h665.6z m153.6 153.6h-51.2V691.2a51.2 51.2 0 0 1-51.2 51.2H256V793.6h665.6zM281.6 384h307.2a51.2 51.2 0 0 1 0 102.4h-307.2a51.2 51.2 0 0 1 0-102.4zM281.6 179.2h307.2a51.2 51.2 0 0 1 0 102.4h-307.2a51.2 51.2 0 0 1 0-102.4z"  horiz-adv-x="1024" />
      
      <glyph glyph-name="dingdan" unicode="&#60951;" d="M819.2 803.84h-75.264A145.92 145.92 0 0 1 608.768 896H415.232a145.92 145.92 0 0 1-135.168-92.16H204.8a157.184 157.184 0 0 1-153.6-159.744v-614.4A157.184 157.184 0 0 1 204.8-128h614.4a157.184 157.184 0 0 1 153.6 159.744v614.4a157.184 157.184 0 0 1-153.6 157.696zM415.232 793.6h194.048a43.008 43.008 0 0 0 0-86.016H415.232a43.008 43.008 0 0 0 0 86.016zM870.4 31.744A55.296 55.296 0 0 0 819.2-25.6H204.8a55.296 55.296 0 0 0-51.2 57.344v614.4A55.296 55.296 0 0 0 204.8 701.44h73.728a145.408 145.408 0 0 1 136.704-96.256h194.048a145.408 145.408 0 0 1 136.192 96.256H819.2a55.296 55.296 0 0 0 51.2-57.856zM665.6 281.6H358.4a51.2 51.2 0 0 1 0-102.4h307.2a51.2 51.2 0 0 1 0 102.4zM665.6 486.4H358.4a51.2 51.2 0 0 1 0-102.4h307.2a51.2 51.2 0 0 1 0 102.4z"  horiz-adv-x="1024" />
      
      <glyph glyph-name="fanhui" unicode="&#60952;" d="M665.6 632.32H176.128L302.08 757.248a51.2 51.2 0 0 1-71.68 72.704L15.36 617.472a51.2 51.2 0 0 1 0-72.704L230.4 332.8a51.2 51.2 0 0 1 71.68 72.704L176.128 529.92H665.6A252.416 252.416 0 1 0 665.6 25.6H169.472a51.2 51.2 0 0 1 0-102.4H665.6a354.816 354.816 0 1 1 0 709.12z"  horiz-adv-x="1033" />
      
      <glyph glyph-name="daima" unicode="&#60953;" d="M288.256 679.936a51.2 51.2 0 0 1-72.192-8.192l-204.8-256a51.2 51.2 0 0 1 0-64l204.8-256a51.2 51.2 0 0 1 79.872 64L116.736 384l179.2 224.256a51.2 51.2 0 0 1-7.68 71.68zM1012.736 415.744l-204.8 256a51.2 51.2 0 0 1-79.872-64l179.2-223.744-179.2-224.256a51.2 51.2 0 0 1 79.872-64l204.8 256a51.2 51.2 0 0 1 0 64zM599.552 793.6a51.2 51.2 0 0 1-60.928-39.424l-153.6-716.8A51.2 51.2 0 0 1 424.448-25.6h10.752a51.2 51.2 0 0 1 51.2 40.448l153.6 716.8A51.2 51.2 0 0 1 599.552 793.6z"  horiz-adv-x="1024" />
      
      <glyph glyph-name="chexiao" unicode="&#60954;" d="M827.392 472.064a512 512 0 0 1-286.208 107.52V854.528a15.872 15.872 0 0 1-9.216 14.336 16.384 16.384 0 0 1-16.896 0L5.632 422.912a15.872 15.872 0 0 1 0-24.064l512-443.904a16.384 16.384 0 0 1 10.752-4.096h6.656a15.872 15.872 0 0 1 9.216 14.336v284.16a479.232 479.232 0 0 0 427.008-340.48 16.384 16.384 0 0 1 15.36-11.264 15.872 15.872 0 0 1 15.36 10.752 514.56 514.56 0 0 1-174.592 563.712z"  horiz-adv-x="1026" />
      
      <glyph glyph-name="biaoji" unicode="&#60955;" d="M1003.462762 829.941459a51.168506 51.168506 0 0 1-55.773671 0c-116.664193-72.147593-195.975377-44.5166-316.733051 0A1074.538621 1074.538621 0 0 1 381.765417 891.343666 801.810486 801.810486 0 0 1 34.842948 852.455602 51.168506 51.168506 0 0 1 2.095104 789.518339L286.080311-91.60333a51.168506 51.168506 0 0 1 51.168506-35.817954 51.168506 51.168506 0 0 1 15.350552 0 51.168506 51.168506 0 0 1 33.259528 64.472317l-114.105768 351.01595c102.337012 125.362839 186.765046 132.52643 290.637113 140.713391a657.003614 657.003614 0 0 1 222.583001 47.58671A435.443984 435.443984 0 0 1 1025.46522 778.772953a51.168506 51.168506 0 0 1-22.002458 51.168506z m-258.912639-258.912639a555.689973 555.689973 0 0 0-190.346842-39.39975 439.537465 439.537465 0 0 1-318.268106-130.991375L117.735927 771.097677a730.174578 730.174578 0 0 0 253.284104 18.420662 977.830146 977.830146 0 0 0 226.164795-57.308726c92.614995-32.236159 181.648196-62.937262 283.985207-38.888064a298.824074 298.824074 0 0 0-136.61991-122.292729z"  horiz-adv-x="1026" />
      
      <glyph glyph-name="dayin" unicode="&#60956;" d="M921.6 691.2h-102.4V844.8a51.2 51.2 0 0 1-51.2 51.2H256a51.2 51.2 0 0 1-51.2-51.2v-153.6H102.4a102.4 102.4 0 0 1-102.4-102.4v-409.6a102.4 102.4 0 0 1 102.4-102.4h102.4v-153.6a51.2 51.2 0 0 1 51.2-51.2h512a51.2 51.2 0 0 1 51.2 51.2v153.6h102.4a102.4 102.4 0 0 1 102.4 102.4V588.8a102.4 102.4 0 0 1-102.4 102.4zM307.2 793.6h409.6v-102.4H307.2z m409.6-819.2H307.2v204.8h409.6z m204.8 204.8h-102.4v51.2a51.2 51.2 0 0 1-51.2 51.2H256a51.2 51.2 0 0 1-51.2-51.2v-51.2H102.4V588.8h819.2zM768 486.4m-51.2 0a51.2 51.2 0 1 1 102.4 0 51.2 51.2 0 1 1-102.4 0Z"  horiz-adv-x="1024" />
      
      <glyph glyph-name="bingzhuangtu" unicode="&#60957;" d="M614.4 486.4h399.36A512 512 0 0 1 614.4 885.76zM512 384V896a512 512 0 1 1 512-512z"  horiz-adv-x="1024" />
      
      <glyph glyph-name="bishuai" unicode="&#60958;" d="M512 896a512 512 0 1 1 512-512A512 512 0 0 1 512 896z m0-921.6a409.6 409.6 0 1 0 409.6 409.6 409.6 409.6 0 0 0-409.6-409.6zM653.824 429.056c-55.296 0-96.256-44.544-96.256-120.832s40.96-121.856 96.256-121.856 96.256 45.568 96.256 121.856-40.96 120.832-96.256 120.832z m0-192c-17.92 0-33.28 17.92-33.28 71.168s15.36 70.144 33.28 70.144 33.28-16.384 33.28-70.144-15.36-71.168-33.28-71.168zM588.8 581.632l-205.312-395.264h52.224l205.312 395.264H588.8zM466.944 461.312c0 76.288-40.96 120.32-96.768 120.32S273.92 537.6 273.92 461.312s40.448-121.856 96.256-121.856S466.944 384 466.944 461.312z m-96.768-71.68c-17.92 0-33.28 18.432-33.28 71.68s15.36 70.144 33.28 70.144 33.28-16.896 33.28-70.144-15.36-71.68-33.28-71.68z"  horiz-adv-x="1024" />
      
      <glyph glyph-name="fenxiao" unicode="&#60959;" d="M898.843965 230.574342a126.942741 126.942741 0 0 1-84.457872-32.247552l-119.776618 90.088397a201.163295 201.163295 0 0 1-38.389942 243.648164l84.969738 121.312217A127.454607 127.454607 0 1 1 668.504314 768.033527a126.942741 126.942741 0 0 1 32.247552-83.946006L617.317725 561.751573A199.627698 199.627698 0 0 1 382.883147 537.693876L289.723555 624.199212a102.373178 102.373178 0 0 1 12.284781 47.091662 102.373178 102.373178 0 1 1-46.06793-85.481604l92.135861-83.946006a201.675161 201.675161 0 0 1 9.213586-246.71936l-153.559768-153.559767a127.454607 127.454607 0 1 1 51.186589-102.373178 126.942741 126.942741 0 0 1-18.427172 65.518834l153.559768 153.559767a204.746356 204.746356 0 0 1 271.288922 26.105161l118.241021-89.064665A127.454607 127.454607 0 1 1 898.843965 230.574342z"  horiz-adv-x="1026" />
      
      <glyph glyph-name="dian" unicode="&#60960;" d="M512 896a512 512 0 1 1 512-512A512 512 0 0 1 512 896z m0-921.6a409.6 409.6 0 1 0 409.6 409.6 409.6 409.6 0 0 0-409.6-409.6zM658.944 691.2H398.848L317.44 351.744h142.848L360.96 76.8h55.296l290.304 367.104h-170.496L658.944 691.2z"  horiz-adv-x="1024" />
      
      <glyph glyph-name="fasong01" unicode="&#60961;" d="M460.8 435.2v-51.2a51.2 51.2 0 0 1 102.4 0V435.2a153.6 153.6 0 0 0 153.6 153.6h81.408l-66.56-66.048A51.2 51.2 0 1 1 803.84 450.56l153.6 153.6a51.2 51.2 0 0 1 0 72.192l-153.6 153.6a51.2 51.2 0 0 1-72.192-72.192l66.56-66.56H716.8a256 256 0 0 1-256-256zM972.8 435.2a51.2 51.2 0 0 1-51.2-51.2 409.6 409.6 0 1 0-409.6 409.6 51.2 51.2 0 0 1 0 102.4 512 512 0 1 1 512-512 51.2 51.2 0 0 1-51.2 51.2z"  horiz-adv-x="1024" />
      
      <glyph glyph-name="chuangkou" unicode="&#60962;" d="M972.8 844.8H51.2a51.2 51.2 0 0 1-51.2-51.2v-819.2a51.2 51.2 0 0 1 51.2-51.2h921.6a51.2 51.2 0 0 1 51.2 51.2V793.6a51.2 51.2 0 0 1-51.2 51.2z m-51.2-102.4v-204.8H102.4V742.4zM102.4 25.6V435.2h819.2v-409.6zM153.6 691.2h102.4v-102.4H153.6zM307.2 691.2h102.4v-102.4H307.2z"  horiz-adv-x="1024" />
      
      <glyph glyph-name="duihuaqipao" unicode="&#60963;" d="M676.345508 632.842395H347.654492a51.197978 51.197978 0 1 1 0-102.395956h329.202996a51.197978 51.197978 0 1 1 0 102.395956zM676.345508 369.17281H347.654492a51.197978 51.197978 0 0 1 0-102.395956h329.202996a51.197978 51.197978 0 0 1 0 102.395956zM808.436291 896H215.563709A183.28876 183.28876 0 0 1 32.786929 713.22322v-526.827191a183.28876 183.28876 0 0 1 182.77678-182.77678H358.406067l116.731389-116.731389a51.197978 51.197978 0 0 1 72.189149 0L665.593933 3.619249h143.354338a183.28876 183.28876 0 0 1 182.77678 182.77678V713.22322A183.28876 183.28876 0 0 1 808.436291 896z m80.380825-709.603971a80.380825 80.380825 0 0 0-80.380825-80.380825h-164.857488a51.197978 51.197978 0 0 1-36.350565-14.847413L512-4.572427l-95.228238 95.740218a51.197978 51.197978 0 0 1-36.350565 14.847413H215.563709a80.380825 80.380825 0 0 0-80.380825 80.380825V713.22322A80.380825 80.380825 0 0 0 215.563709 793.604045h592.872582a80.380825 80.380825 0 0 0 80.380825-80.380825z"  horiz-adv-x="1024" />
      
      <glyph glyph-name="fenlei" unicode="&#60964;" d="M262.656 870.4h-12.8A224.768 224.768 0 0 1 25.6 646.144v-12.8A224.768 224.768 0 0 1 249.856 409.6H435.2a51.2 51.2 0 0 1 51.2 51.2V646.144A224.768 224.768 0 0 1 262.656 870.4z m121.856-358.4H249.856A121.856 121.856 0 0 0 128 633.344v12.8A121.856 121.856 0 0 0 249.856 768h12.8A121.856 121.856 0 0 0 384 646.144zM768 358.4h-179.2a51.2 51.2 0 0 1-51.2-51.2V128a230.4 230.4 0 1 1 230.4 230.4z m0-358.4a128 128 0 0 0-128 128v128H768a128 128 0 0 0 0-256zM588.8 409.6H768A230.4 230.4 0 1 1 537.6 640v-179.2a51.2 51.2 0 0 1 51.2-51.2zM435.2 358.4H256A230.4 230.4 0 1 1 486.4 128v179.2a51.2 51.2 0 0 1-51.2 51.2z m-51.2-230.4A128 128 0 1 0 256 256h128z"  horiz-adv-x="1024" />
      
      <glyph glyph-name="guanbixiaoxitixing" unicode="&#60965;" d="M665.6 230.4V435.2a153.6 153.6 0 0 1-128 153.6v23.552a25.6 25.6 0 0 1-51.2 0V588.8A153.6 153.6 0 0 1 358.4 435.2v-204.8a25.6 25.6 0 0 1 0-51.2h102.4a51.2 51.2 0 0 1 102.4 0h102.4a25.6 25.6 0 0 1 0 51.2zM512 896a512 512 0 1 1 512-512A512 512 0 0 1 512 896z m0-921.6a409.6 409.6 0 0 0-270.336 102.4L307.2 141.824a283.136 283.136 0 0 0-37.376 37.376L204.8 113.664A409.6 409.6 0 0 0 782.336 691.2L665.6 574.976a283.136 283.136 0 0 0 36.352-36.352L819.2 654.336A409.6 409.6 0 0 0 512-25.6z"  horiz-adv-x="1024" />
      
      <glyph glyph-name="fenxiang" unicode="&#60966;" d="M819.217101 588.78418a204.795187 204.795187 0 0 1-160.252234-78.846148l-153.59639 66.558436A255.993984 255.993984 0 0 1 512.02432 639.982976a255.993984 255.993984 0 1 1-51.198797-153.59639l159.228259-68.0944a191.4835 191.4835 0 0 1 28.671326-140.796691l-118.269221-112.125365A153.59639 153.59639 0 0 1 460.825523 179.193805a153.59639 153.59639 0 1 1 138.74874-88.573919l121.341148 114.685305A204.795187 204.795187 0 0 1 819.217101 179.193805a204.795187 204.795187 0 0 1 0 409.590375zM256.030336 486.386586a153.59639 153.59639 0 1 0 153.596391 153.59639 153.59639 153.59639 0 0 0-153.596391-153.59639z m563.186765-204.795187a102.397594 102.397594 0 1 0 102.397594 102.397593 102.397594 102.397594 0 0 0-102.397594-102.397593z"  horiz-adv-x="1024" />
      
      <glyph glyph-name="chenggong" unicode="&#60967;" d="M957.932132 634.300688l-445.431373-444.92347a21.839851 21.839851 0 0 0-29.458403 0l-223.477542 183.353165a15.237105 15.237105 0 0 0 0 22.855658l76.185526 73.138104a15.237105 15.237105 0 0 0 21.331947 0l142.212981-142.212981 406.322804 384.990856a511.966732 511.966732 0 1 1 50.79035-73.138104z"  horiz-adv-x="1032" />
      
      <glyph glyph-name="baocun" unicode="&#60968;" d="M947.2 870.4h-870.4a51.2 51.2 0 0 1-51.2-51.2v-870.4a51.2 51.2 0 0 1 51.2-51.2h870.4a51.2 51.2 0 0 1 51.2 51.2v870.4a51.2 51.2 0 0 1-51.2 51.2zM358.4 768h307.2v-204.8H358.4z m537.6-768h-768v768H256v-256a51.2 51.2 0 0 1 51.2-51.2h409.6a51.2 51.2 0 0 1 51.2 51.2v256h128zM719.872 204.8h-409.6a51.2 51.2 0 0 1 0-102.4h409.6a51.2 51.2 0 0 1 0 102.4z"  horiz-adv-x="1024" />
      
      <glyph glyph-name="bianji" unicode="&#60969;" d="M889.538867 719.267303a51.157028 51.157028 0 0 1-24.043803 31.205788L625.568602 889.108637a51.157028 51.157028 0 0 1-70.085128-18.928101L139.576835 149.37801a51.157028 51.157028 0 0 1-5.115702-38.367771l51.157028-200.023979a51.157028 51.157028 0 0 1 51.157028-38.367772 51.157028 51.157028 0 0 1 15.858679 0l188.769433 61.388434a51.157028 51.157028 0 0 1 28.647936 23.020663l414.371928 723.360377a51.157028 51.157028 0 0 1 5.115702 38.879341z m-271.132249 55.761161l153.471085-87.478518-43.995044-76.735542-153.471085 87.478518zM389.734703 26.089573l-118.172735-38.367771-32.740498 126.869429 284.433076 494.688462 153.471084-87.478518z"  horiz-adv-x="1024" />
      
      <glyph glyph-name="fuzhi" unicode="&#60970;" d="M0 896m51.2 0l716.8 0q51.2 0 51.2-51.2l0-716.8q0-51.2-51.2-51.2l-716.8 0q-51.2 0-51.2 51.2l0 716.8q0 51.2 51.2 51.2ZM972.8 793.6a51.2 51.2 0 0 1-51.2-51.2v-768H153.6a51.2 51.2 0 0 1 0-102.4h768a102.4 102.4 0 0 1 102.4 102.4V742.4a51.2 51.2 0 0 1-51.2 51.2z"  horiz-adv-x="1024" />
      
      <glyph glyph-name="guoji" unicode="&#60971;" d="M512 896a512 512 0 1 1 512-512A512 512 0 0 1 512 896z m0-921.6h-9.728a176.64 176.64 0 0 0-6.656 68.096 302.08 302.08 0 0 0 77.312 146.944c42.496 30.72 115.712 4.096 138.752 38.4s-4.096 84.992-57.856 123.392-80.896 15.36-150.528 30.72-58.368 62.464-112.128 81.92-57.856-38.4-131.072-54.272a262.144 262.144 0 0 0-153.6 31.744A409.6 409.6 0 0 0 512 793.6h31.232c-5.632-30.72-17.92-116.224 13.824-135.168s65.536-27.136 65.536-42.496-23.04-84.992-4.096-108.032a177.664 177.664 0 0 1 131.072-54.272c38.4 11.776 54.272 73.216 54.272 73.216s51.2-61.952 77.824 32.768A409.6 409.6 0 0 0 512-25.6z"  horiz-adv-x="1024" />
      
      <glyph glyph-name="cangkuchaxunguanli" unicode="&#60972;" d="M997.846119 633.192903l-460.70855 255.949194a51.189839 51.189839 0 0 1-51.189839 0l-460.708549-255.949194a51.189839 51.189839 0 0 1-18.428342-69.618181A51.189839 51.189839 0 0 1 51.345999 537.467905v-614.278066a51.189839 51.189839 0 0 1 51.189839-51.189839h563.088227a51.189839 51.189839 0 0 1 0 102.379678H153.725676V588.657743l358.328872 199.128473L870.38342 588.657743v-307.139032a51.189839 51.189839 0 0 1 102.379678 0V537.467905a51.189839 51.189839 0 0 1 25.083021 95.724998zM783.360694 133.580076a228.306681 228.306681 0 0 1 35.832887 122.343715 230.354275 230.354275 0 1 1-230.354275-230.354275 228.306681 228.306681 0 0 1 122.343715 35.832888l174.557351-174.557351a51.189839 51.189839 0 0 1 72.177672 72.177673zM460.864709 255.923791a127.974597 127.974597 0 1 0 127.974597-127.974597A127.974597 127.974597 0 0 0 460.864709 255.923791z"  horiz-adv-x="1024" />
      
      <glyph glyph-name="guanlian" unicode="&#60973;" d="M972.8 537.6h-256V844.8a51.2 51.2 0 0 1-51.2 51.2H51.2a51.2 51.2 0 0 1-51.2-51.2v-563.2a51.2 51.2 0 0 1 51.2-51.2h256v-307.2a51.2 51.2 0 0 1 51.2-51.2h614.4a51.2 51.2 0 0 1 51.2 51.2V486.4a51.2 51.2 0 0 1-51.2 51.2zM102.4 332.8V793.6h512v-256H358.4a51.2 51.2 0 0 1-51.2-51.2v-153.6z m512 102.4v-102.4H409.6V435.2z m307.2-460.8H409.6v256h256a51.2 51.2 0 0 1 51.2 51.2V435.2h204.8z"  horiz-adv-x="1024" />
      
      <glyph glyph-name="dengchu" unicode="&#60974;" d="M665.6 179.2a51.2 51.2 0 0 1-51.2-51.2v-102.4H102.4V742.4h512v-102.4a51.2 51.2 0 0 1 102.4 0V793.6a51.2 51.2 0 0 1-51.2 51.2H51.2a51.2 51.2 0 0 1-51.2-51.2v-819.2a51.2 51.2 0 0 1 51.2-51.2h614.4a51.2 51.2 0 0 1 51.2 51.2v153.6a51.2 51.2 0 0 1-51.2 51.2zM1008.128 420.864L834.56 594.432a51.2 51.2 0 0 1-72.704-72.192L848.384 435.2H307.2a51.2 51.2 0 0 1 0-102.4h541.184l-86.528-86.528a51.2 51.2 0 1 1 72.192-72.192l173.568 173.568a51.2 51.2 0 0 1 0.512 73.216z"  horiz-adv-x="1024" />
      
      <glyph glyph-name="dianhua" unicode="&#60975;" d="M688.428118-128a276.701049 276.701049 0 0 0-195.890022 81.322489l-409.169758 409.169758A277.212511 277.212511 0 0 0 51.14622 717.958475L140.652104 849.915722A102.292439 102.292439 0 0 0 299.716848 864.748125l186.683702-187.195164a102.292439 102.292439 0 0 0 15.343866-127.354087L463.896213 485.754637l153.438659-153.438659 62.398388 37.848202a102.292439 102.292439 0 0 0 127.354088-15.343866l186.683702-186.683702a102.292439 102.292439 0 0 0-14.320942-159.064743L845.958475-76.85378a276.701049 276.701049 0 0 0-157.530357-51.14622z m-460.315978 920.631955L133.491634 660.163246A174.920072 174.920072 0 0 1 153.438659 434.608417l409.169758-409.169758a174.408609 174.408609 0 0 1 222.997518-19.947025L920.631955 96.531905l-186.683702 189.241013L634.724587 230.023538a51.14622 51.14622 0 0 0-62.398388 7.671933L363.649622 443.814737A51.14622 51.14622 0 0 0 358.023538 506.724587L414.28438 603.390942z"  horiz-adv-x="1026" />
      
      <glyph glyph-name="caidan" unicode="&#60976;" d="M153.6 640h716.8a51.2 51.2 0 0 1 0 102.4H153.6a51.2 51.2 0 0 1 0-102.4zM665.6 435.2H153.6a51.2 51.2 0 0 1 0-102.4h512a51.2 51.2 0 0 1 0 102.4zM460.8 128H153.6a51.2 51.2 0 0 1 0-102.4h307.2a51.2 51.2 0 0 1 0 102.4z"  horiz-adv-x="1024" />
      
      <glyph glyph-name="diannao" unicode="&#60977;" d="M972.8 896H51.2a51.2 51.2 0 0 1-51.2-51.2v-665.6a51.2 51.2 0 0 1 51.2-51.2h409.6v-153.6H256a51.2 51.2 0 0 1 0-102.4h512a51.2 51.2 0 0 1 0 102.4h-204.8v153.6h409.6a51.2 51.2 0 0 1 51.2 51.2V844.8a51.2 51.2 0 0 1-51.2 51.2z m-51.2-665.6H102.4V793.6h819.2z"  horiz-adv-x="1024" />
      
    </font>
</defs>
</svg>
